<svg width="375" height="226" viewBox="0 0 375 226" fill="none" xmlns="http://www.w3.org/2000/svg">
<g filter="url(#filter0_d_18_156)">
<rect x="24" width="327" height="186" rx="32" fill="white" shape-rendering="crispEdges"/>
<path d="M86.9915 37.5455V55H83.804L76.2102 44.0142H76.0824V55H72.392V37.5455H75.6307L83.1648 48.5227H83.3182V37.5455H86.9915ZM89.9723 55V41.9091H93.603V55H89.9723ZM91.7962 40.2216C91.2564 40.2216 90.7933 40.0426 90.407 39.6847C90.0263 39.321 89.8359 38.8864 89.8359 38.3807C89.8359 37.8807 90.0263 37.4517 90.407 37.0938C90.7933 36.7301 91.2564 36.5483 91.7962 36.5483C92.3359 36.5483 92.7962 36.7301 93.1768 37.0938C93.5632 37.4517 93.7564 37.8807 93.7564 38.3807C93.7564 38.8864 93.5632 39.321 93.1768 39.6847C92.7962 40.0426 92.3359 40.2216 91.7962 40.2216ZM100.142 47.4318V55H96.5114V41.9091H99.9716V44.2188H100.125C100.415 43.4574 100.901 42.8551 101.582 42.4119C102.264 41.9631 103.091 41.7386 104.062 41.7386C104.972 41.7386 105.764 41.9375 106.44 42.3352C107.116 42.733 107.642 43.3011 108.017 44.0398C108.392 44.7727 108.58 45.6477 108.58 46.6648V55H104.949V47.3125C104.955 46.5114 104.75 45.8864 104.335 45.4375C103.92 44.983 103.349 44.7557 102.622 44.7557C102.134 44.7557 101.702 44.8608 101.327 45.071C100.957 45.2812 100.668 45.5881 100.457 45.9915C100.253 46.3892 100.148 46.8693 100.142 47.4318ZM117.339 60.1818C116.163 60.1818 115.154 60.0199 114.313 59.696C113.478 59.3778 112.813 58.9432 112.319 58.392C111.825 57.8409 111.504 57.2216 111.356 56.5341L114.714 56.0824C114.816 56.3438 114.978 56.5881 115.2 56.8153C115.421 57.0426 115.714 57.2244 116.077 57.3608C116.447 57.5028 116.896 57.5739 117.424 57.5739C118.214 57.5739 118.864 57.3807 119.376 56.9943C119.893 56.6136 120.151 55.9744 120.151 55.0767V52.6818H119.998C119.839 53.0455 119.6 53.3892 119.282 53.7131C118.964 54.0369 118.555 54.3011 118.055 54.5057C117.555 54.7102 116.958 54.8125 116.265 54.8125C115.282 54.8125 114.387 54.5852 113.58 54.1307C112.779 53.6705 112.14 52.9687 111.663 52.0256C111.191 51.0767 110.955 49.8778 110.955 48.429C110.955 46.946 111.197 45.7074 111.68 44.7131C112.163 43.7187 112.805 42.9744 113.606 42.4801C114.413 41.9858 115.296 41.7386 116.256 41.7386C116.989 41.7386 117.603 41.8636 118.097 42.1136C118.592 42.358 118.989 42.6648 119.29 43.0341C119.597 43.3977 119.833 43.7557 119.998 44.108H120.134V41.9091H123.739V55.1278C123.739 56.2415 123.467 57.1733 122.921 57.9233C122.376 58.6733 121.62 59.2358 120.654 59.6108C119.694 59.9915 118.589 60.1818 117.339 60.1818ZM117.415 52.0852C118.001 52.0852 118.495 51.9403 118.898 51.6506C119.308 51.3551 119.62 50.9347 119.836 50.3892C120.058 49.8381 120.168 49.179 120.168 48.4119C120.168 47.6449 120.06 46.9801 119.844 46.4176C119.629 45.8494 119.316 45.4091 118.907 45.0966C118.498 44.7841 118.001 44.6278 117.415 44.6278C116.819 44.6278 116.316 44.7898 115.907 45.1136C115.498 45.4318 115.188 45.875 114.978 46.4432C114.768 47.0114 114.663 47.6676 114.663 48.4119C114.663 49.1676 114.768 49.821 114.978 50.3722C115.194 50.9176 115.504 51.3409 115.907 51.642C116.316 51.9375 116.819 52.0852 117.415 52.0852ZM135.023 49.4261V41.9091H138.654V55H135.168V52.6222H135.032C134.737 53.3892 134.245 54.0057 133.558 54.4716C132.876 54.9375 132.043 55.1705 131.06 55.1705C130.185 55.1705 129.415 54.9716 128.751 54.5739C128.086 54.1761 127.566 53.6108 127.191 52.8778C126.822 52.1449 126.634 51.267 126.629 50.2443V41.9091H130.259V49.5966C130.265 50.3693 130.472 50.9801 130.881 51.429C131.29 51.8778 131.839 52.1023 132.526 52.1023C132.964 52.1023 133.373 52.0028 133.754 51.804C134.134 51.5994 134.441 51.2983 134.674 50.9006C134.913 50.5028 135.029 50.0114 135.023 49.4261ZM131.35 40.2216L133.157 36.3438H136.515L133.915 40.2216H131.35ZM145.189 47.4318V55H141.558V41.9091H145.018V44.2188H145.172C145.462 43.4574 145.947 42.8551 146.629 42.4119C147.311 41.9631 148.138 41.7386 149.109 41.7386C150.018 41.7386 150.811 41.9375 151.487 42.3352C152.163 42.733 152.689 43.3011 153.064 44.0398C153.439 44.7727 153.626 45.6477 153.626 46.6648V55H149.996V47.3125C150.001 46.5114 149.797 45.8864 149.382 45.4375C148.967 44.983 148.396 44.7557 147.669 44.7557C147.18 44.7557 146.749 44.8608 146.374 45.071C146.004 45.2812 145.714 45.5881 145.504 45.9915C145.3 46.3892 145.195 46.8693 145.189 47.4318ZM162.043 55V41.9091H165.503V44.2188H165.656C165.929 43.4517 166.384 42.8466 167.02 42.4034C167.656 41.9602 168.418 41.7386 169.304 41.7386C170.202 41.7386 170.966 41.9631 171.597 42.4119C172.227 42.8551 172.648 43.4574 172.858 44.2188H172.994C173.261 43.4688 173.744 42.8693 174.443 42.4205C175.148 41.9659 175.98 41.7386 176.94 41.7386C178.162 41.7386 179.153 42.1278 179.915 42.9062C180.682 43.679 181.065 44.7756 181.065 46.196V55H177.443V46.9119C177.443 46.1847 177.25 45.6392 176.864 45.2756C176.477 44.9119 175.994 44.7301 175.415 44.7301C174.756 44.7301 174.241 44.9403 173.872 45.3608C173.503 45.7756 173.318 46.3239 173.318 47.0057V55H169.798V46.8352C169.798 46.1932 169.614 45.6818 169.244 45.3011C168.881 44.9205 168.401 44.7301 167.804 44.7301C167.401 44.7301 167.037 44.8324 166.713 45.0369C166.395 45.2358 166.142 45.517 165.955 45.8807C165.767 46.2386 165.673 46.6591 165.673 47.142V55H162.043ZM189.899 55.2557C188.553 55.2557 187.393 54.983 186.422 54.4375C185.456 53.8864 184.712 53.108 184.189 52.1023C183.666 51.0909 183.405 49.8949 183.405 48.5142C183.405 47.1676 183.666 45.9858 184.189 44.9688C184.712 43.9517 185.447 43.1591 186.396 42.5909C187.351 42.0227 188.47 41.7386 189.754 41.7386C190.618 41.7386 191.422 41.8778 192.166 42.1562C192.916 42.429 193.57 42.8409 194.126 43.392C194.689 43.9432 195.126 44.6364 195.439 45.4716C195.751 46.3011 195.908 47.2727 195.908 48.3864V49.3835H184.854V47.1335H192.49C192.49 46.6108 192.376 46.1477 192.149 45.7443C191.922 45.3409 191.607 45.0256 191.203 44.7983C190.805 44.5653 190.342 44.4489 189.814 44.4489C189.263 44.4489 188.774 44.5767 188.348 44.8324C187.928 45.0824 187.598 45.4205 187.359 45.8466C187.121 46.267 186.999 46.7358 186.993 47.2528V49.392C186.993 50.0398 187.112 50.5994 187.351 51.071C187.595 51.5426 187.939 51.9062 188.382 52.1619C188.825 52.4176 189.351 52.5455 189.959 52.5455C190.362 52.5455 190.732 52.4886 191.067 52.375C191.402 52.2614 191.689 52.0909 191.928 51.8636C192.166 51.6364 192.348 51.358 192.473 51.0284L195.831 51.25C195.661 52.0568 195.311 52.7614 194.783 53.3636C194.26 53.9602 193.584 54.4261 192.754 54.7614C191.93 55.0909 190.979 55.2557 189.899 55.2557ZM201.908 47.4318V55H198.277V41.9091H201.737V44.2188H201.891C202.18 43.4574 202.666 42.8551 203.348 42.4119C204.03 41.9631 204.857 41.7386 205.828 41.7386C206.737 41.7386 207.53 41.9375 208.206 42.3352C208.882 42.733 209.408 43.3011 209.783 44.0398C210.158 44.7727 210.345 45.6477 210.345 46.6648V55H206.714V47.3125C206.72 46.5114 206.516 45.8864 206.101 45.4375C205.686 44.983 205.115 44.7557 204.388 44.7557C203.899 44.7557 203.467 44.8608 203.092 45.071C202.723 45.2812 202.433 45.5881 202.223 45.9915C202.018 46.3892 201.913 46.8693 201.908 47.4318ZM224.099 45.642L220.775 45.8466C220.718 45.5625 220.596 45.3068 220.408 45.0795C220.221 44.8466 219.974 44.6619 219.667 44.5256C219.366 44.3835 219.005 44.3125 218.585 44.3125C218.022 44.3125 217.548 44.4318 217.161 44.6705C216.775 44.9034 216.582 45.2159 216.582 45.608C216.582 45.9205 216.707 46.1847 216.957 46.4006C217.207 46.6165 217.636 46.7898 218.244 46.9205L220.613 47.3977C221.886 47.6591 222.835 48.0795 223.46 48.6591C224.085 49.2386 224.397 50 224.397 50.9432C224.397 51.8011 224.144 52.554 223.638 53.2017C223.138 53.8494 222.451 54.3551 221.576 54.7188C220.707 55.0767 219.704 55.2557 218.567 55.2557C216.835 55.2557 215.454 54.8949 214.425 54.1733C213.403 53.446 212.803 52.4574 212.627 51.2074L216.198 51.0199C216.306 51.5483 216.567 51.9517 216.982 52.2301C217.397 52.5028 217.928 52.6392 218.576 52.6392C219.212 52.6392 219.724 52.517 220.11 52.2727C220.502 52.0227 220.701 51.7017 220.707 51.3097C220.701 50.9801 220.562 50.7102 220.289 50.5C220.016 50.2841 219.596 50.1193 219.028 50.0057L216.761 49.554C215.482 49.2983 214.531 48.8551 213.906 48.2244C213.286 47.5937 212.977 46.7898 212.977 45.8125C212.977 44.9716 213.204 44.2472 213.658 43.6392C214.119 43.0312 214.763 42.5625 215.593 42.233C216.428 41.9034 217.406 41.7386 218.525 41.7386C220.178 41.7386 221.479 42.0881 222.428 42.7869C223.383 43.4858 223.94 44.4375 224.099 45.642ZM230.416 55.2472C229.581 55.2472 228.837 55.1023 228.183 54.8125C227.53 54.517 227.013 54.0824 226.632 53.5085C226.257 52.929 226.07 52.2074 226.07 51.3438C226.07 50.6165 226.203 50.0057 226.47 49.5114C226.737 49.017 227.101 48.6193 227.561 48.3182C228.021 48.017 228.544 47.7898 229.129 47.6364C229.72 47.483 230.339 47.375 230.987 47.3125C231.749 47.233 232.362 47.1591 232.828 47.0909C233.294 47.017 233.632 46.9091 233.842 46.767C234.053 46.625 234.158 46.4148 234.158 46.1364V46.0852C234.158 45.5455 233.987 45.1278 233.646 44.8324C233.311 44.5369 232.834 44.3892 232.214 44.3892C231.561 44.3892 231.041 44.5341 230.655 44.8239C230.268 45.108 230.013 45.4659 229.888 45.8977L226.53 45.625C226.7 44.8295 227.036 44.142 227.536 43.5625C228.036 42.9773 228.68 42.5284 229.47 42.2159C230.266 41.8977 231.186 41.7386 232.232 41.7386C232.959 41.7386 233.655 41.8239 234.32 41.9943C234.99 42.1648 235.584 42.429 236.101 42.7869C236.624 43.1449 237.036 43.6051 237.337 44.1676C237.638 44.7244 237.788 45.392 237.788 46.1705V55H234.345V53.1847H234.243C234.033 53.5938 233.751 53.9545 233.399 54.267C233.047 54.5739 232.624 54.8153 232.129 54.9915C231.635 55.1619 231.064 55.2472 230.416 55.2472ZM231.456 52.7415C231.99 52.7415 232.462 52.6364 232.871 52.4261C233.28 52.2102 233.601 51.9205 233.834 51.5568C234.067 51.1932 234.183 50.7812 234.183 50.321V48.9318C234.07 49.0057 233.913 49.0739 233.714 49.1364C233.521 49.1932 233.303 49.2472 233.058 49.2983C232.814 49.3437 232.57 49.3864 232.325 49.4261C232.081 49.4602 231.859 49.4915 231.661 49.5199C231.234 49.5824 230.862 49.6818 230.544 49.8182C230.226 49.9545 229.979 50.1392 229.803 50.3722C229.626 50.5994 229.538 50.8835 229.538 51.2244C229.538 51.7188 229.717 52.0966 230.075 52.358C230.439 52.6136 230.899 52.7415 231.456 52.7415ZM240.605 41.9091H244.236V55.6477C244.236 56.6591 244.037 57.4773 243.639 58.1023C243.241 58.7273 242.67 59.1847 241.926 59.4744C241.188 59.7642 240.304 59.9091 239.276 59.9091C239.151 59.9091 239.031 59.9063 238.918 59.9006C238.798 59.9006 238.673 59.8977 238.543 59.892V57.054C238.639 57.0597 238.724 57.0625 238.798 57.0625C238.866 57.0682 238.94 57.071 239.02 57.071C239.605 57.071 240.014 56.946 240.247 56.696C240.486 56.4517 240.605 56.0824 240.605 55.5881V41.9091ZM242.412 40.2216C241.878 40.2216 241.418 40.0426 241.031 39.6847C240.645 39.321 240.452 38.8864 240.452 38.3807C240.452 37.8807 240.645 37.4517 241.031 37.0938C241.418 36.7301 241.878 36.5483 242.412 36.5483C242.957 36.5483 243.42 36.7301 243.801 37.0938C244.188 37.4517 244.381 37.8807 244.381 38.3807C244.381 38.8864 244.188 39.321 243.801 39.6847C243.42 40.0426 242.957 40.2216 242.412 40.2216ZM253.11 55.2557C251.763 55.2557 250.604 54.983 249.633 54.4375C248.667 53.8864 247.923 53.108 247.4 52.1023C246.877 51.0909 246.616 49.8949 246.616 48.5142C246.616 47.1676 246.877 45.9858 247.4 44.9688C247.923 43.9517 248.658 43.1591 249.607 42.5909C250.562 42.0227 251.681 41.7386 252.965 41.7386C253.829 41.7386 254.633 41.8778 255.377 42.1562C256.127 42.429 256.781 42.8409 257.337 43.392C257.9 43.9432 258.337 44.6364 258.65 45.4716C258.962 46.3011 259.119 47.2727 259.119 48.3864V49.3835H248.065V47.1335H255.701C255.701 46.6108 255.587 46.1477 255.36 45.7443C255.133 45.3409 254.817 45.0256 254.414 44.7983C254.016 44.5653 253.553 44.4489 253.025 44.4489C252.474 44.4489 251.985 44.5767 251.559 44.8324C251.138 45.0824 250.809 45.4205 250.57 45.8466C250.332 46.267 250.21 46.7358 250.204 47.2528V49.392C250.204 50.0398 250.323 50.5994 250.562 51.071C250.806 51.5426 251.15 51.9062 251.593 52.1619C252.036 52.4176 252.562 52.5455 253.17 52.5455C253.573 52.5455 253.942 52.4886 254.278 52.375C254.613 52.2614 254.9 52.0909 255.138 51.8636C255.377 51.6364 255.559 51.358 255.684 51.0284L259.042 51.25C258.871 52.0568 258.522 52.7614 257.994 53.3636C257.471 53.9602 256.795 54.4261 255.965 54.7614C255.141 55.0909 254.19 55.2557 253.11 55.2557ZM274.082 41.9091V44.6364H266.003V41.9091H274.082ZM267.852 55V40.9631C267.852 40.0142 268.037 39.2273 268.406 38.6023C268.781 37.9773 269.293 37.5085 269.94 37.196C270.588 36.8835 271.324 36.7273 272.148 36.7273C272.705 36.7273 273.213 36.7699 273.673 36.8551C274.139 36.9403 274.486 37.017 274.713 37.0852L274.065 39.8125C273.923 39.767 273.747 39.7244 273.537 39.6847C273.332 39.6449 273.122 39.625 272.906 39.625C272.372 39.625 272 39.75 271.79 40C271.58 40.2443 271.474 40.5881 271.474 41.0312V55H267.852ZM284.695 49.4261V41.9091H288.326V55H284.84V52.6222H284.704C284.408 53.3892 283.917 54.0057 283.229 54.4716C282.548 54.9375 281.715 55.1705 280.732 55.1705C279.857 55.1705 279.087 54.9716 278.423 54.5739C277.758 54.1761 277.238 53.6108 276.863 52.8778C276.494 52.1449 276.306 51.267 276.3 50.2443V41.9091H279.931V49.5966C279.937 50.3693 280.144 50.9801 280.553 51.429C280.962 51.8778 281.511 52.1023 282.198 52.1023C282.636 52.1023 283.045 52.0028 283.425 51.804C283.806 51.5994 284.113 51.2983 284.346 50.9006C284.585 50.5028 284.701 50.0114 284.695 49.4261ZM297.196 55.2557C295.849 55.2557 294.69 54.983 293.719 54.4375C292.753 53.8864 292.009 53.108 291.486 52.1023C290.963 51.0909 290.702 49.8949 290.702 48.5142C290.702 47.1676 290.963 45.9858 291.486 44.9688C292.009 43.9517 292.744 43.1591 293.693 42.5909C294.648 42.0227 295.767 41.7386 297.051 41.7386C297.915 41.7386 298.719 41.8778 299.463 42.1562C300.213 42.429 300.866 42.8409 301.423 43.392C301.986 43.9432 302.423 44.6364 302.736 45.4716C303.048 46.3011 303.205 47.2727 303.205 48.3864V49.3835H292.151V47.1335H299.787C299.787 46.6108 299.673 46.1477 299.446 45.7443C299.219 45.3409 298.903 45.0256 298.5 44.7983C298.102 44.5653 297.639 44.4489 297.111 44.4489C296.56 44.4489 296.071 44.5767 295.645 44.8324C295.224 45.0824 294.895 45.4205 294.656 45.8466C294.418 46.267 294.295 46.7358 294.29 47.2528V49.392C294.29 50.0398 294.409 50.5994 294.648 51.071C294.892 51.5426 295.236 51.9062 295.679 52.1619C296.122 52.4176 296.648 52.5455 297.256 52.5455C297.659 52.5455 298.028 52.4886 298.364 52.375C298.699 52.2614 298.986 52.0909 299.224 51.8636C299.463 51.6364 299.645 51.358 299.77 51.0284L303.128 51.25C302.957 52.0568 302.608 52.7614 302.08 53.3636C301.557 53.9602 300.881 54.4261 300.051 54.7614C299.227 55.0909 298.276 55.2557 297.196 55.2557ZM127.075 84.2557C125.728 84.2557 124.569 83.983 123.598 83.4375C122.632 82.8864 121.887 82.108 121.365 81.1023C120.842 80.0909 120.581 78.8949 120.581 77.5142C120.581 76.1676 120.842 74.9858 121.365 73.9688C121.887 72.9517 122.623 72.1591 123.572 71.5909C124.527 71.0227 125.646 70.7386 126.93 70.7386C127.794 70.7386 128.598 70.8778 129.342 71.1562C130.092 71.429 130.745 71.8409 131.302 72.392C131.865 72.9432 132.302 73.6364 132.615 74.4716C132.927 75.3011 133.083 76.2727 133.083 77.3864V78.3835H122.029V76.1335H129.666C129.666 75.6108 129.552 75.1477 129.325 74.7443C129.098 74.3409 128.782 74.0256 128.379 73.7983C127.981 73.5653 127.518 73.4489 126.99 73.4489C126.439 73.4489 125.95 73.5767 125.524 73.8324C125.103 74.0824 124.774 74.4205 124.535 74.8466C124.297 75.267 124.174 75.7358 124.169 76.2528V78.392C124.169 79.0398 124.288 79.5994 124.527 80.071C124.771 80.5426 125.115 80.9062 125.558 81.1619C126.001 81.4176 126.527 81.5455 127.135 81.5455C127.538 81.5455 127.907 81.4886 128.243 81.375C128.578 81.2614 128.865 81.0909 129.103 80.8636C129.342 80.6364 129.524 80.358 129.649 80.0284L133.007 80.25C132.836 81.0568 132.487 81.7614 131.958 82.3636C131.436 82.9602 130.76 83.4261 129.93 83.7614C129.106 84.0909 128.154 84.2557 127.075 84.2557ZM139.083 76.4318V84H135.453V70.9091H138.913V73.2188H139.066C139.356 72.4574 139.842 71.8551 140.524 71.4119C141.206 70.9631 142.032 70.7386 143.004 70.7386C143.913 70.7386 144.706 70.9375 145.382 71.3352C146.058 71.733 146.583 72.3011 146.958 73.0398C147.333 73.7727 147.521 74.6477 147.521 75.6648V84H143.89V76.3125C143.896 75.5114 143.691 74.8864 143.277 74.4375C142.862 73.983 142.291 73.7557 141.564 73.7557C141.075 73.7557 140.643 73.8608 140.268 74.071C139.899 74.2812 139.609 74.5881 139.399 74.9915C139.194 75.3892 139.089 75.8693 139.083 76.4318ZM156.297 84.2557C154.956 84.2557 153.803 83.9716 152.837 83.4034C151.877 82.8295 151.138 82.0341 150.621 81.017C150.11 80 149.854 78.8295 149.854 77.5057C149.854 76.1648 150.113 74.9886 150.63 73.9773C151.152 72.9602 151.894 72.1676 152.854 71.5994C153.814 71.0256 154.956 70.7386 156.28 70.7386C157.422 70.7386 158.422 70.946 159.28 71.3608C160.138 71.7756 160.817 72.358 161.317 73.108C161.817 73.858 162.093 74.7386 162.144 75.75H158.718C158.621 75.0966 158.365 74.571 157.951 74.1733C157.542 73.7699 157.005 73.5682 156.34 73.5682C155.777 73.5682 155.286 73.7216 154.865 74.0284C154.451 74.3295 154.127 74.7699 153.894 75.3494C153.661 75.929 153.544 76.6307 153.544 77.4545C153.544 78.2898 153.658 79 153.885 79.5852C154.118 80.1705 154.445 80.6165 154.865 80.9233C155.286 81.2301 155.777 81.3835 156.34 81.3835C156.755 81.3835 157.127 81.2983 157.456 81.1278C157.792 80.9574 158.067 80.7102 158.283 80.3864C158.505 80.0568 158.65 79.6619 158.718 79.2017H162.144C162.087 80.2017 161.814 81.0824 161.326 81.8438C160.843 82.5994 160.175 83.1903 159.323 83.6165C158.471 84.0426 157.462 84.2557 156.297 84.2557ZM170.383 84.2557C169.059 84.2557 167.914 83.9744 166.949 83.4119C165.988 82.8437 165.247 82.054 164.724 81.0426C164.201 80.0256 163.94 78.8466 163.94 77.5057C163.94 76.1534 164.201 74.9716 164.724 73.9602C165.247 72.9432 165.988 72.1534 166.949 71.5909C167.914 71.0227 169.059 70.7386 170.383 70.7386C171.707 70.7386 172.849 71.0227 173.809 71.5909C174.775 72.1534 175.52 72.9432 176.042 73.9602C176.565 74.9716 176.826 76.1534 176.826 77.5057C176.826 78.8466 176.565 80.0256 176.042 81.0426C175.52 82.054 174.775 82.8437 173.809 83.4119C172.849 83.9744 171.707 84.2557 170.383 84.2557ZM170.4 81.4432C171.002 81.4432 171.505 81.2727 171.909 80.9318C172.312 80.5852 172.616 80.1136 172.821 79.517C173.031 78.9205 173.136 78.2415 173.136 77.4801C173.136 76.7188 173.031 76.0398 172.821 75.4432C172.616 74.8466 172.312 74.375 171.909 74.0284C171.505 73.6818 171.002 73.5085 170.4 73.5085C169.792 73.5085 169.281 73.6818 168.866 74.0284C168.457 74.375 168.147 74.8466 167.937 75.4432C167.733 76.0398 167.63 76.7188 167.63 77.4801C167.63 78.2415 167.733 78.9205 167.937 79.517C168.147 80.1136 168.457 80.5852 168.866 80.9318C169.281 81.2727 169.792 81.4432 170.4 81.4432ZM182.818 76.4318V84H179.187V70.9091H182.647V73.2188H182.801C183.091 72.4574 183.576 71.8551 184.258 71.4119C184.94 70.9631 185.767 70.7386 186.738 70.7386C187.647 70.7386 188.44 70.9375 189.116 71.3352C189.792 71.733 190.318 72.3011 190.693 73.0398C191.068 73.7727 191.255 74.6477 191.255 75.6648V84H187.625V76.3125C187.63 75.5114 187.426 74.8864 187.011 74.4375C186.596 73.983 186.025 73.7557 185.298 73.7557C184.809 73.7557 184.377 73.8608 184.002 74.071C183.633 74.2812 183.343 74.5881 183.133 74.9915C182.929 75.3892 182.824 75.8693 182.818 76.4318ZM201.08 70.9091V73.6364H193.196V70.9091H201.08ZM194.986 67.7727H198.617V79.9773C198.617 80.3125 198.668 80.5739 198.77 80.7614C198.873 80.9432 199.015 81.071 199.196 81.1449C199.384 81.2187 199.6 81.2557 199.844 81.2557C200.015 81.2557 200.185 81.2415 200.355 81.2131C200.526 81.179 200.657 81.1534 200.748 81.1364L201.319 83.8381C201.137 83.8949 200.881 83.9602 200.551 84.0341C200.222 84.1136 199.821 84.1619 199.35 84.179C198.475 84.2131 197.708 84.0966 197.049 83.8295C196.395 83.5625 195.887 83.1477 195.523 82.5852C195.159 82.0227 194.98 81.3125 194.986 80.4545V67.7727ZM203.445 84V70.9091H206.965V73.1932H207.101C207.34 72.3807 207.74 71.767 208.303 71.3523C208.865 70.9318 209.513 70.7216 210.246 70.7216C210.428 70.7216 210.624 70.733 210.834 70.7557C211.044 70.7784 211.229 70.8097 211.388 70.8494V74.071C211.218 74.0199 210.982 73.9744 210.681 73.9347C210.38 73.8949 210.104 73.875 209.854 73.875C209.32 73.875 208.843 73.9915 208.422 74.2244C208.007 74.4517 207.678 74.7699 207.434 75.179C207.195 75.5881 207.076 76.0597 207.076 76.5938V84H203.445ZM216.623 84.2472C215.788 84.2472 215.044 84.1023 214.39 83.8125C213.737 83.517 213.22 83.0824 212.839 82.5085C212.464 81.929 212.277 81.2074 212.277 80.3438C212.277 79.6165 212.41 79.0057 212.677 78.5114C212.944 78.017 213.308 77.6193 213.768 77.3182C214.228 77.017 214.751 76.7898 215.336 76.6364C215.927 76.483 216.547 76.375 217.194 76.3125C217.956 76.233 218.569 76.1591 219.035 76.0909C219.501 76.017 219.839 75.9091 220.049 75.767C220.26 75.625 220.365 75.4148 220.365 75.1364V75.0852C220.365 74.5455 220.194 74.1278 219.853 73.8324C219.518 73.5369 219.041 73.3892 218.422 73.3892C217.768 73.3892 217.248 73.5341 216.862 73.8239C216.475 74.108 216.22 74.4659 216.095 74.8977L212.737 74.625C212.907 73.8295 213.243 73.142 213.743 72.5625C214.243 71.9773 214.887 71.5284 215.677 71.2159C216.473 70.8977 217.393 70.7386 218.439 70.7386C219.166 70.7386 219.862 70.8239 220.527 70.9943C221.197 71.1648 221.791 71.429 222.308 71.7869C222.831 72.1449 223.243 72.6051 223.544 73.1676C223.845 73.7244 223.995 74.392 223.995 75.1705V84H220.552V82.1847H220.45C220.24 82.5938 219.958 82.9545 219.606 83.267C219.254 83.5739 218.831 83.8153 218.336 83.9915C217.842 84.1619 217.271 84.2472 216.623 84.2472ZM217.663 81.7415C218.197 81.7415 218.669 81.6364 219.078 81.4261C219.487 81.2102 219.808 80.9205 220.041 80.5568C220.274 80.1932 220.39 79.7812 220.39 79.321V77.9318C220.277 78.0057 220.12 78.0739 219.922 78.1364C219.728 78.1932 219.51 78.2472 219.265 78.2983C219.021 78.3437 218.777 78.3864 218.532 78.4261C218.288 78.4602 218.066 78.4915 217.868 78.5199C217.441 78.5824 217.069 78.6818 216.751 78.8182C216.433 78.9545 216.186 79.1392 216.01 79.3722C215.833 79.5994 215.745 79.8835 215.745 80.2244C215.745 80.7188 215.924 81.0966 216.282 81.358C216.646 81.6136 217.106 81.7415 217.663 81.7415ZM231.636 84.2131C230.642 84.2131 229.741 83.9574 228.934 83.446C228.133 82.929 227.497 82.1705 227.025 81.1705C226.559 80.1648 226.326 78.9318 226.326 77.4716C226.326 75.9716 226.568 74.7244 227.051 73.7301C227.534 72.7301 228.176 71.983 228.977 71.4886C229.784 70.9886 230.667 70.7386 231.627 70.7386C232.36 70.7386 232.971 70.8636 233.46 71.1136C233.954 71.358 234.352 71.6648 234.653 72.0341C234.96 72.3977 235.193 72.7557 235.352 73.108H235.463V66.5455H239.085V84H235.505V81.9034H235.352C235.181 82.267 234.94 82.6278 234.627 82.9858C234.321 83.3381 233.92 83.6307 233.426 83.8636C232.937 84.0966 232.341 84.2131 231.636 84.2131ZM232.787 81.3239C233.372 81.3239 233.866 81.1648 234.27 80.8466C234.679 80.5227 234.991 80.071 235.207 79.4915C235.429 78.9119 235.539 78.233 235.539 77.4545C235.539 76.6761 235.431 76 235.216 75.4261C235 74.8523 234.687 74.4091 234.278 74.0966C233.869 73.7841 233.372 73.6278 232.787 73.6278C232.19 73.6278 231.687 73.7898 231.278 74.1136C230.869 74.4375 230.559 74.8864 230.349 75.4602C230.139 76.0341 230.034 76.6989 230.034 77.4545C230.034 78.2159 230.139 78.8892 230.349 79.4744C230.565 80.054 230.875 80.5085 231.278 80.8381C231.687 81.1619 232.19 81.3239 232.787 81.3239ZM247.985 84.2557C246.661 84.2557 245.516 83.9744 244.55 83.4119C243.59 82.8437 242.848 82.054 242.326 81.0426C241.803 80.0256 241.542 78.8466 241.542 77.5057C241.542 76.1534 241.803 74.9716 242.326 73.9602C242.848 72.9432 243.59 72.1534 244.55 71.5909C245.516 71.0227 246.661 70.7386 247.985 70.7386C249.309 70.7386 250.451 71.0227 251.411 71.5909C252.377 72.1534 253.121 72.9432 253.644 73.9602C254.167 74.9716 254.428 76.1534 254.428 77.5057C254.428 78.8466 254.167 80.0256 253.644 81.0426C253.121 82.054 252.377 82.8437 251.411 83.4119C250.451 83.9744 249.309 84.2557 247.985 84.2557ZM248.002 81.4432C248.604 81.4432 249.107 81.2727 249.51 80.9318C249.914 80.5852 250.218 80.1136 250.422 79.517C250.632 78.9205 250.738 78.2415 250.738 77.4801C250.738 76.7188 250.632 76.0398 250.422 75.4432C250.218 74.8466 249.914 74.375 249.51 74.0284C249.107 73.6818 248.604 73.5085 248.002 73.5085C247.394 73.5085 246.882 73.6818 246.468 74.0284C246.059 74.375 245.749 74.8466 245.539 75.4432C245.334 76.0398 245.232 76.7188 245.232 77.4801C245.232 78.2415 245.334 78.9205 245.539 79.517C245.749 80.1136 246.059 80.5852 246.468 80.9318C246.882 81.2727 247.394 81.4432 248.002 81.4432Z" fill="#343A40"/>
<path d="M86.076 112.364H84.6669V124H86.076V112.364ZM90.0604 118.75C90.0604 117.227 91.0036 116.364 92.2876 116.364C93.532 116.364 94.2876 117.176 94.2876 118.545V124H95.6286V118.455C95.6286 116.227 94.4411 115.159 92.674 115.159C91.3558 115.159 90.5376 115.75 90.1286 116.636H90.0149V115.273H88.7195V124H90.0604V118.75ZM101.602 127.455C103.692 127.455 105.374 126.5 105.374 124.25V115.273H104.079V116.659H103.942C103.647 116.205 103.102 115.159 101.397 115.159C99.1925 115.159 97.6697 116.909 97.6697 119.591C97.6697 122.318 99.2607 123.864 101.374 123.864C103.079 123.864 103.624 122.864 103.92 122.386H104.033V124.159C104.033 125.614 103.011 126.273 101.602 126.273C100.016 126.273 99.4595 125.438 99.1016 124.955L98.0334 125.705C98.5788 126.619 99.6527 127.455 101.602 127.455ZM101.556 122.659C99.8743 122.659 99.0107 121.386 99.0107 119.568C99.0107 117.795 99.8516 116.364 101.556 116.364C103.192 116.364 104.056 117.682 104.056 119.568C104.056 121.5 103.17 122.659 101.556 122.659ZM107.829 124H109.17V118.477C109.17 117.295 110.102 116.432 111.374 116.432C111.732 116.432 112.102 116.5 112.192 116.523V115.159C112.039 115.148 111.687 115.136 111.488 115.136C110.442 115.136 109.533 115.727 109.215 116.591H109.124V115.273H107.829V124ZM117.175 124.182C118.948 124.182 120.244 123.295 120.653 121.977L119.357 121.614C119.016 122.523 118.227 122.977 117.175 122.977C115.602 122.977 114.516 121.96 114.454 120.091H120.789V119.523C120.789 116.273 118.857 115.159 117.039 115.159C114.675 115.159 113.107 117.023 113.107 119.705C113.107 122.386 114.653 124.182 117.175 124.182ZM114.454 118.932C114.545 117.574 115.505 116.364 117.039 116.364C118.494 116.364 119.425 117.455 119.425 118.932H114.454ZM129.011 117.227C128.59 115.989 127.647 115.159 125.92 115.159C124.079 115.159 122.715 116.205 122.715 117.682C122.715 118.886 123.431 119.693 125.033 120.068L126.488 120.409C127.369 120.614 127.783 121.034 127.783 121.636C127.783 122.386 126.988 123 125.738 123C124.641 123 123.954 122.528 123.715 121.591L122.442 121.909C122.755 123.392 123.977 124.182 125.761 124.182C127.789 124.182 129.17 123.074 129.17 121.568C129.17 120.352 128.408 119.585 126.852 119.205L125.556 118.886C124.522 118.631 124.056 118.284 124.056 117.614C124.056 116.864 124.852 116.318 125.92 116.318C127.09 116.318 127.573 116.966 127.806 117.568L129.011 117.227ZM133.756 124.205C135.279 124.205 136.075 123.386 136.347 122.818H136.415V124H137.756V118.25C137.756 115.477 135.643 115.159 134.529 115.159C133.211 115.159 131.711 115.614 131.029 117.205L132.302 117.659C132.597 117.023 133.296 116.341 134.575 116.341C135.808 116.341 136.415 116.994 136.415 118.114V118.159C136.415 118.807 135.756 118.75 134.165 118.955C132.546 119.165 130.779 119.523 130.779 121.523C130.779 123.227 132.097 124.205 133.756 124.205ZM133.961 123C132.893 123 132.12 122.523 132.12 121.591C132.12 120.568 133.052 120.25 134.097 120.114C134.665 120.045 136.188 119.886 136.415 119.614V120.841C136.415 121.932 135.552 123 133.961 123ZM148.363 124.182C150.136 124.182 151.431 123.295 151.84 121.977L150.545 121.614C150.204 122.523 149.414 122.977 148.363 122.977C146.789 122.977 145.704 121.96 145.641 120.091H151.977V119.523C151.977 116.273 150.045 115.159 148.227 115.159C145.863 115.159 144.295 117.023 144.295 119.705C144.295 122.386 145.84 124.182 148.363 124.182ZM145.641 118.932C145.732 117.574 146.692 116.364 148.227 116.364C149.681 116.364 150.613 117.455 150.613 118.932H145.641ZM155.357 112.364H154.016V124H155.357V112.364ZM166.109 115.273H164.245V113.182H162.904V115.273H161.586V116.409H162.904V121.864C162.904 123.386 164.131 124.114 165.268 124.114C165.768 124.114 166.086 124.023 166.268 123.955L165.995 122.75C165.881 122.773 165.7 122.818 165.404 122.818C164.813 122.818 164.245 122.636 164.245 121.5V116.409H166.109V115.273ZM171.691 124.182C173.464 124.182 174.759 123.295 175.168 121.977L173.873 121.614C173.532 122.523 172.742 122.977 171.691 122.977C170.117 122.977 169.032 121.96 168.969 120.091H175.305V119.523C175.305 116.273 173.373 115.159 171.555 115.159C169.191 115.159 167.623 117.023 167.623 119.705C167.623 122.386 169.168 124.182 171.691 124.182ZM168.969 118.932C169.06 117.574 170.021 116.364 171.555 116.364C173.009 116.364 173.941 117.455 173.941 118.932H168.969ZM178.11 115.273H176.565L179.337 119.636L176.565 124H178.11L180.201 120.614L182.292 124H183.837L181.019 119.636L183.837 115.273H182.292L180.201 118.841L178.11 115.273ZM189.546 115.273H187.683V113.182H186.342V115.273H185.023V116.409H186.342V121.864C186.342 123.386 187.569 124.114 188.705 124.114C189.205 124.114 189.523 124.023 189.705 123.955L189.433 122.75C189.319 122.773 189.137 122.818 188.842 122.818C188.251 122.818 187.683 122.636 187.683 121.5V116.409H189.546V115.273ZM195.015 124.182C197.379 124.182 198.969 122.386 198.969 119.682C198.969 116.955 197.379 115.159 195.015 115.159C192.651 115.159 191.06 116.955 191.06 119.682C191.06 122.386 192.651 124.182 195.015 124.182ZM195.015 122.977C193.219 122.977 192.401 121.432 192.401 119.682C192.401 117.932 193.219 116.364 195.015 116.364C196.81 116.364 197.629 117.932 197.629 119.682C197.629 121.432 196.81 122.977 195.015 122.977ZM212.812 127.273V115.273H211.516V116.659H211.357C211.062 116.205 210.539 115.159 208.835 115.159C206.63 115.159 205.107 116.909 205.107 119.659C205.107 122.432 206.63 124.182 208.812 124.182C210.494 124.182 211.062 123.136 211.357 122.659H211.471V127.273H212.812ZM211.494 119.636C211.494 121.614 210.607 122.977 208.994 122.977C207.312 122.977 206.448 121.5 206.448 119.636C206.448 117.795 207.289 116.364 208.994 116.364C210.63 116.364 211.494 117.682 211.494 119.636ZM220.766 120.432C220.766 122.068 219.516 122.818 218.516 122.818C217.403 122.818 216.607 122 216.607 120.727V115.273H215.266V120.818C215.266 123.045 216.448 124.114 218.085 124.114C219.403 124.114 220.266 123.409 220.675 122.523H220.766V124H222.107V115.273H220.766V120.432ZM228.222 124.182C229.995 124.182 231.29 123.295 231.7 121.977L230.404 121.614C230.063 122.523 229.273 122.977 228.222 122.977C226.648 122.977 225.563 121.96 225.501 120.091H231.836V119.523C231.836 116.273 229.904 115.159 228.086 115.159C225.722 115.159 224.154 117.023 224.154 119.705C224.154 122.386 225.7 124.182 228.222 124.182ZM225.501 118.932C225.592 117.574 226.552 116.364 228.086 116.364C229.54 116.364 230.472 117.455 230.472 118.932H225.501ZM241.671 124.182C243.353 124.182 243.921 123.136 244.217 122.659H244.376V124H245.671V112.364H244.33V116.659H244.217C243.921 116.205 243.398 115.159 241.694 115.159C239.489 115.159 237.967 116.909 237.967 119.659C237.967 122.432 239.489 124.182 241.671 124.182ZM241.853 122.977C240.171 122.977 239.308 121.5 239.308 119.636C239.308 117.795 240.148 116.364 241.853 116.364C243.489 116.364 244.353 117.682 244.353 119.636C244.353 121.614 243.467 122.977 241.853 122.977ZM251.972 124.182C253.745 124.182 255.04 123.295 255.45 121.977L254.154 121.614C253.813 122.523 253.023 122.977 251.972 122.977C250.398 122.977 249.313 121.96 249.251 120.091H255.586V119.523C255.586 116.273 253.654 115.159 251.836 115.159C249.472 115.159 247.904 117.023 247.904 119.705C247.904 122.386 249.45 124.182 251.972 124.182ZM249.251 118.932C249.342 117.574 250.302 116.364 251.836 116.364C253.29 116.364 254.222 117.455 254.222 118.932H249.251ZM263.808 117.227C263.387 115.989 262.444 115.159 260.717 115.159C258.876 115.159 257.512 116.205 257.512 117.682C257.512 118.886 258.228 119.693 259.83 120.068L261.285 120.409C262.165 120.614 262.58 121.034 262.58 121.636C262.58 122.386 261.785 123 260.535 123C259.438 123 258.751 122.528 258.512 121.591L257.239 121.909C257.552 123.392 258.773 124.182 260.558 124.182C262.586 124.182 263.967 123.074 263.967 121.568C263.967 120.352 263.205 119.585 261.648 119.205L260.353 118.886C259.319 118.631 258.853 118.284 258.853 117.614C258.853 116.864 259.648 116.318 260.717 116.318C261.887 116.318 262.37 116.966 262.603 117.568L263.808 117.227ZM269.644 124.182C271.417 124.182 272.712 123.295 273.121 121.977L271.826 121.614C271.485 122.523 270.695 122.977 269.644 122.977C268.07 122.977 266.985 121.96 266.923 120.091H273.258V119.523C273.258 116.273 271.326 115.159 269.508 115.159C267.144 115.159 265.576 117.023 265.576 119.705C265.576 122.386 267.121 124.182 269.644 124.182ZM266.923 118.932C267.013 117.574 267.974 116.364 269.508 116.364C270.962 116.364 271.894 117.455 271.894 118.932H266.923ZM278.957 124.182C280.729 124.182 282.025 123.295 282.434 121.977L281.138 121.614C280.798 122.523 280.008 122.977 278.957 122.977C277.383 122.977 276.298 121.96 276.235 120.091H282.57V119.523C282.57 116.273 280.638 115.159 278.82 115.159C276.457 115.159 274.888 117.023 274.888 119.705C274.888 122.386 276.434 124.182 278.957 124.182ZM276.235 118.932C276.326 117.574 277.286 116.364 278.82 116.364C280.275 116.364 281.207 117.455 281.207 118.932H276.235ZM290.792 117.227C290.371 115.989 289.428 115.159 287.701 115.159C285.86 115.159 284.496 116.205 284.496 117.682C284.496 118.886 285.212 119.693 286.815 120.068L288.269 120.409C289.15 120.614 289.565 121.034 289.565 121.636C289.565 122.386 288.769 123 287.519 123C286.423 123 285.735 122.528 285.496 121.591L284.224 121.909C284.536 123.392 285.758 124.182 287.542 124.182C289.57 124.182 290.951 123.074 290.951 121.568C290.951 120.352 290.19 119.585 288.633 119.205L287.337 118.886C286.303 118.631 285.837 118.284 285.837 117.614C285.837 116.864 286.633 116.318 287.701 116.318C288.871 116.318 289.354 116.966 289.587 117.568L290.792 117.227ZM99.7145 148.182C101.487 148.182 102.783 147.295 103.192 145.977L101.896 145.614C101.555 146.523 100.766 146.977 99.7145 146.977C98.1406 146.977 97.0554 145.96 96.9929 144.091H103.328V143.523C103.328 140.273 101.396 139.159 99.5781 139.159C97.2145 139.159 95.6463 141.023 95.6463 143.705C95.6463 146.386 97.1918 148.182 99.7145 148.182ZM96.9929 142.932C97.0838 141.574 98.044 140.364 99.5781 140.364C101.033 140.364 101.964 141.455 101.964 142.932H96.9929ZM106.709 142.75C106.709 141.227 107.652 140.364 108.936 140.364C110.18 140.364 110.936 141.176 110.936 142.545V148H112.277V142.455C112.277 140.227 111.089 139.159 109.322 139.159C108.004 139.159 107.186 139.75 106.777 140.636H106.663V139.273H105.368V148H106.709V142.75ZM118.273 148.182C120.205 148.182 121.477 147 121.705 145.455H120.364C120.114 146.409 119.318 146.977 118.273 146.977C116.682 146.977 115.659 145.659 115.659 143.636C115.659 141.659 116.705 140.364 118.273 140.364C119.455 140.364 120.159 141.091 120.364 141.886H121.705C121.477 140.25 120.091 139.159 118.25 139.159C115.886 139.159 114.318 141.023 114.318 143.682C114.318 146.295 115.818 148.182 118.273 148.182ZM123.665 148H125.006V142.477C125.006 141.295 125.938 140.432 127.21 140.432C127.568 140.432 127.938 140.5 128.028 140.523V139.159C127.875 139.148 127.523 139.136 127.324 139.136C126.278 139.136 125.369 139.727 125.051 140.591H124.96V139.273H123.665V148ZM129.618 148H130.959V139.273H129.618V148ZM130.3 137.818C130.822 137.818 131.254 137.409 131.254 136.909C131.254 136.409 130.822 136 130.3 136C129.777 136 129.345 136.409 129.345 136.909C129.345 137.409 129.777 137.818 130.3 137.818ZM133.415 151.273H134.756V146.659H134.869C135.165 147.136 135.733 148.182 137.415 148.182C139.597 148.182 141.119 146.432 141.119 143.659C141.119 140.909 139.597 139.159 137.392 139.159C135.688 139.159 135.165 140.205 134.869 140.659H134.71V139.273H133.415V151.273ZM134.733 143.636C134.733 141.682 135.597 140.364 137.233 140.364C138.938 140.364 139.778 141.795 139.778 143.636C139.778 145.5 138.915 146.977 137.233 146.977C135.619 146.977 134.733 145.614 134.733 143.636ZM146.96 139.273H145.097V137.182H143.756V139.273H142.438V140.409H143.756V145.864C143.756 147.386 144.983 148.114 146.119 148.114C146.619 148.114 146.938 148.023 147.119 147.955L146.847 146.75C146.733 146.773 146.551 146.818 146.256 146.818C145.665 146.818 145.097 146.636 145.097 145.5V140.409H146.96V139.273ZM151.545 148.205C153.068 148.205 153.864 147.386 154.136 146.818H154.205V148H155.545V142.25C155.545 139.477 153.432 139.159 152.318 139.159C151 139.159 149.5 139.614 148.818 141.205L150.091 141.659C150.386 141.023 151.085 140.341 152.364 140.341C153.597 140.341 154.205 140.994 154.205 142.114V142.159C154.205 142.807 153.545 142.75 151.955 142.955C150.335 143.165 148.568 143.523 148.568 145.523C148.568 147.227 149.886 148.205 151.545 148.205ZM151.75 147C150.682 147 149.909 146.523 149.909 145.591C149.909 144.568 150.841 144.25 151.886 144.114C152.455 144.045 153.977 143.886 154.205 143.614V144.841C154.205 145.932 153.341 147 151.75 147ZM157.993 148H159.334V142.477C159.334 141.295 160.266 140.432 161.538 140.432C161.896 140.432 162.266 140.5 162.357 140.523V139.159C162.203 139.148 161.851 139.136 161.652 139.136C160.607 139.136 159.697 139.727 159.379 140.591H159.288V139.273H157.993V148ZM171.991 148.182C174.355 148.182 175.946 146.386 175.946 143.682C175.946 140.955 174.355 139.159 171.991 139.159C169.628 139.159 168.037 140.955 168.037 143.682C168.037 146.386 169.628 148.182 171.991 148.182ZM171.991 146.977C170.196 146.977 169.378 145.432 169.378 143.682C169.378 141.932 170.196 140.364 171.991 140.364C173.787 140.364 174.605 141.932 174.605 143.682C174.605 145.432 173.787 146.977 171.991 146.977ZM185.788 148.182C187.47 148.182 188.038 147.136 188.334 146.659H188.493V148H189.788V136.364H188.447V140.659H188.334C188.038 140.205 187.516 139.159 185.811 139.159C183.607 139.159 182.084 140.909 182.084 143.659C182.084 146.432 183.607 148.182 185.788 148.182ZM185.97 146.977C184.288 146.977 183.425 145.5 183.425 143.636C183.425 141.795 184.266 140.364 185.97 140.364C187.607 140.364 188.47 141.682 188.47 143.636C188.47 145.614 187.584 146.977 185.97 146.977ZM196.089 148.182C197.862 148.182 199.158 147.295 199.567 145.977L198.271 145.614C197.93 146.523 197.141 146.977 196.089 146.977C194.516 146.977 193.43 145.96 193.368 144.091H199.703V143.523C199.703 140.273 197.771 139.159 195.953 139.159C193.589 139.159 192.021 141.023 192.021 143.705C192.021 146.386 193.567 148.182 196.089 148.182ZM193.368 142.932C193.459 141.574 194.419 140.364 195.953 140.364C197.408 140.364 198.339 141.455 198.339 142.932H193.368ZM207.925 141.227C207.504 139.989 206.561 139.159 204.834 139.159C202.993 139.159 201.629 140.205 201.629 141.682C201.629 142.886 202.345 143.693 203.947 144.068L205.402 144.409C206.283 144.614 206.697 145.034 206.697 145.636C206.697 146.386 205.902 147 204.652 147C203.555 147 202.868 146.528 202.629 145.591L201.357 145.909C201.669 147.392 202.891 148.182 204.675 148.182C206.703 148.182 208.084 147.074 208.084 145.568C208.084 144.352 207.322 143.585 205.766 143.205L204.47 142.886C203.436 142.631 202.97 142.284 202.97 141.614C202.97 140.864 203.766 140.318 204.834 140.318C206.004 140.318 206.487 140.966 206.72 141.568L207.925 141.227ZM213.761 148.182C215.534 148.182 216.83 147.295 217.239 145.977L215.943 145.614C215.602 146.523 214.812 146.977 213.761 146.977C212.188 146.977 211.102 145.96 211.04 144.091H217.375V143.523C217.375 140.273 215.443 139.159 213.625 139.159C211.261 139.159 209.693 141.023 209.693 143.705C209.693 146.386 211.239 148.182 213.761 148.182ZM211.04 142.932C211.131 141.574 212.091 140.364 213.625 140.364C215.08 140.364 216.011 141.455 216.011 142.932H211.04ZM220.756 142.75C220.756 141.227 221.699 140.364 222.983 140.364C224.227 140.364 224.983 141.176 224.983 142.545V148H226.324V142.455C226.324 140.227 225.136 139.159 223.369 139.159C222.051 139.159 221.233 139.75 220.824 140.636H220.71V139.273H219.415V148H220.756V142.75ZM232.32 148.182C234.251 148.182 235.524 147 235.751 145.455H234.411C234.161 146.409 233.365 146.977 232.32 146.977C230.729 146.977 229.706 145.659 229.706 143.636C229.706 141.659 230.751 140.364 232.32 140.364C233.501 140.364 234.206 141.091 234.411 141.886H235.751C235.524 140.25 234.138 139.159 232.297 139.159C229.933 139.159 228.365 141.023 228.365 143.682C228.365 146.295 229.865 148.182 232.32 148.182ZM237.712 148H239.053V142.477C239.053 141.295 239.984 140.432 241.257 140.432C241.615 140.432 241.984 140.5 242.075 140.523V139.159C241.922 139.148 241.57 139.136 241.371 139.136C240.325 139.136 239.416 139.727 239.098 140.591H239.007V139.273H237.712V148ZM243.665 148H245.006V139.273H243.665V148ZM244.347 137.818C244.869 137.818 245.301 137.409 245.301 136.909C245.301 136.409 244.869 136 244.347 136C243.824 136 243.392 136.409 243.392 136.909C243.392 137.409 243.824 137.818 244.347 137.818ZM247.462 151.273H248.803V146.659H248.916C249.212 147.136 249.78 148.182 251.462 148.182C253.643 148.182 255.166 146.432 255.166 143.659C255.166 140.909 253.643 139.159 251.439 139.159C249.734 139.159 249.212 140.205 248.916 140.659H248.757V139.273H247.462V151.273ZM248.78 143.636C248.78 141.682 249.643 140.364 251.28 140.364C252.984 140.364 253.825 141.795 253.825 143.636C253.825 145.5 252.962 146.977 251.28 146.977C249.666 146.977 248.78 145.614 248.78 143.636ZM261.007 139.273H259.143V137.182H257.803V139.273H256.484V140.409H257.803V145.864C257.803 147.386 259.03 148.114 260.166 148.114C260.666 148.114 260.984 148.023 261.166 147.955L260.893 146.75C260.78 146.773 260.598 146.818 260.303 146.818C259.712 146.818 259.143 146.636 259.143 145.5V140.409H261.007V139.273ZM265.592 148.205C267.115 148.205 267.911 147.386 268.183 146.818H268.251V148H269.592V142.25C269.592 139.477 267.479 139.159 266.365 139.159C265.047 139.159 263.547 139.614 262.865 141.205L264.138 141.659C264.433 141.023 265.132 140.341 266.411 140.341C267.643 140.341 268.251 140.994 268.251 142.114V142.159C268.251 142.807 267.592 142.75 266.001 142.955C264.382 143.165 262.615 143.523 262.615 145.523C262.615 147.227 263.933 148.205 265.592 148.205ZM265.797 147C264.729 147 263.956 146.523 263.956 145.591C263.956 144.568 264.888 144.25 265.933 144.114C266.501 144.045 268.024 143.886 268.251 143.614V144.841C268.251 145.932 267.388 147 265.797 147ZM272.04 148H273.381V142.477C273.381 141.295 274.312 140.432 275.585 140.432C275.943 140.432 276.312 140.5 276.403 140.523V139.159C276.25 139.148 275.898 139.136 275.699 139.136C274.653 139.136 273.744 139.727 273.426 140.591H273.335V139.273H272.04V148ZM277.97 148.091C278.533 148.091 278.993 147.631 278.993 147.068C278.993 146.506 278.533 146.045 277.97 146.045C277.408 146.045 276.947 146.506 276.947 147.068C276.947 147.631 277.408 148.091 277.97 148.091Z" fill="#495057"/>
</g>
<defs>
<filter id="filter0_d_18_156" x="0" y="0" width="375" height="234" filterUnits="userSpaceOnUse" color-interpolation-filters="sRGB">
<feFlood flood-opacity="0" result="BackgroundImageFix"/>
<feColorMatrix in="SourceAlpha" type="matrix" values="0 0 0 0 0 0 0 0 0 0 0 0 0 0 0 0 0 0 127 0" result="hardAlpha"/>
<feMorphology radius="8" operator="erode" in="SourceAlpha" result="effect1_dropShadow_18_156"/>
<feOffset dy="24"/>
<feGaussianBlur stdDeviation="16"/>
<feComposite in2="hardAlpha" operator="out"/>
<feColorMatrix type="matrix" values="0 0 0 0 0 0 0 0 0 0 0 0 0 0 0 0 0 0 0.08 0"/>
<feBlend mode="normal" in2="BackgroundImageFix" result="effect1_dropShadow_18_156"/>
<feBlend mode="normal" in="SourceGraphic" in2="effect1_dropShadow_18_156" result="shape"/>
</filter>
</defs>
</svg>
